# xmcd
#
# Track frame offsets: 
#        150
#        13192
#        24570
#        35522
#        49310
#        56637
#        70200
#        83137
#        96090
#        108027
#        123907
#
# Disc length: 1837 seconds
#
# Revision: 2
# Processed by: cddbd v1.4PL0 Copyright (c) Steve Scherf et al.
# Submitted via: ExactAudioCopy v0.95a2
#
DISCID=8b072b0b
DTITLE=Statler Brothers - Innerview
DYEAR=1900
DGENRE=
TTITLE0=Do You Remember These
TTITLE1=I'd Rather Be Sorry
TTITLE2=Every Day Will Be Sunday Bye And Bye
TTITLE3=She Thinks I Still Care
TTITLE4=Got Leavin' On Her Mind
TTITLE5=I'll Take Care Of You
TTITLE6=Take Me Home, Country Roads
TTITLE7=Daddy
TTITLE8=Never Ending Song Of Love
TTITLE9=A Different Song
TTITLE10=Since Then
EXTD=
EXTT0=
EXTT1=
EXTT2=
EXTT3=
EXTT4=
EXTT5=
EXTT6=
EXTT7=
EXTT8=
EXTT9=
EXTT10=
PLAYORDER=
